<svg width="176" height="144" viewBox="0 0 176 144" fill="none" xmlns="http://www.w3.org/2000/svg">
<g opacity="0.05">
<path d="M47.8516 0C65.9505 0 79.0365 7.45443 87.1094 22.3633C93.3594 33.8867 96.4844 49.6745 96.4844 69.7266C96.4844 88.737 93.6523 104.46 87.9883 116.895C79.7852 134.733 66.3737 143.652 47.7539 143.652C30.957 143.652 18.457 136.361 10.2539 121.777C3.41797 109.603 0 93.2617 0 72.7539C0 56.8685 2.05078 43.2292 6.15234 31.8359C13.8346 10.612 27.7344 0 47.8516 0ZM47.6562 127.637C56.7708 127.637 64.0299 123.6 69.4336 115.527C74.8372 107.454 77.5391 92.4154 77.5391 70.4102C77.5391 54.5247 75.5859 41.4714 71.6797 31.25C67.7734 20.9635 60.1888 15.8203 48.9258 15.8203C38.5742 15.8203 30.9896 20.7031 26.1719 30.4688C21.4193 40.1693 19.043 54.4922 19.043 73.4375C19.043 87.6953 20.5729 99.1536 23.6328 107.812C28.3203 121.029 36.3281 127.637 47.6562 127.637Z" fill="url(#paint0_linear_41260_4789)"/>
<path d="M124.219 40.8203V27.3438C136.914 26.1068 145.768 24.056 150.781 21.1914C155.794 18.2617 159.538 11.3932 162.012 0.585938H175.879V139.844H157.129V40.8203H124.219Z" fill="url(#paint1_linear_41260_4789)"/>
</g>
<defs>
<linearGradient id="paint0_linear_41260_4789" x1="-4.86943e-06" y1="16.1609" x2="139.533" y2="271.931" gradientUnits="userSpaceOnUse">
<stop stop-color="#EEDDBF"/>
<stop offset="0.745659" stop-color="#C78A11"/>
</linearGradient>
<linearGradient id="paint1_linear_41260_4789" x1="-4.86943e-06" y1="16.1609" x2="139.533" y2="271.931" gradientUnits="userSpaceOnUse">
<stop stop-color="#EEDDBF"/>
<stop offset="0.745659" stop-color="#C78A11"/>
</linearGradient>
</defs>
</svg>
