<svg width="208" height="144" viewBox="0 0 208 144" fill="none" xmlns="http://www.w3.org/2000/svg">
<g opacity="0.05">
<path d="M47.8516 0.195312C65.9505 0.195312 79.0365 7.64974 87.1094 22.5586C93.3594 34.082 96.4844 49.8698 96.4844 69.9219C96.4844 88.9323 93.6523 104.655 87.9883 117.09C79.7852 134.928 66.3737 143.848 47.7539 143.848C30.957 143.848 18.457 136.556 10.2539 121.973C3.41797 109.798 0 93.457 0 72.9492C0 57.0638 2.05078 43.4245 6.15234 32.0312C13.8346 10.8073 27.7344 0.195312 47.8516 0.195312ZM47.6562 127.832C56.7708 127.832 64.0299 123.796 69.4336 115.723C74.8372 107.65 77.5391 92.6107 77.5391 70.6055C77.5391 54.7201 75.5859 41.6667 71.6797 31.4453C67.7734 21.1589 60.1888 16.0156 48.9258 16.0156C38.5742 16.0156 30.9896 20.8984 26.1719 30.6641C21.4193 40.3646 19.043 54.6875 19.043 73.6328C19.043 87.8906 20.5729 99.349 23.6328 108.008C28.3203 121.224 36.3281 127.832 47.6562 127.832Z" fill="url(#paint0_linear_41260_4783)"/>
<path d="M157.031 143.848C140.495 143.848 128.483 139.323 120.996 130.273C113.574 121.159 109.863 110.091 109.863 97.0703H128.223C129.004 106.12 130.697 112.695 133.301 116.797C137.858 124.154 146.094 127.832 158.008 127.832C167.253 127.832 174.674 125.358 180.273 120.41C185.872 115.462 188.672 109.082 188.672 101.27C188.672 91.6341 185.71 84.8958 179.785 81.0547C173.926 77.2135 165.755 75.293 155.273 75.293C154.102 75.293 152.897 75.3255 151.66 75.3906C150.488 75.3906 149.284 75.4232 148.047 75.4883V59.9609C149.87 60.1562 151.4 60.2865 152.637 60.3516C153.874 60.4167 155.208 60.4492 156.641 60.4492C163.216 60.4492 168.62 59.4076 172.852 57.3242C180.273 53.6784 183.984 47.168 183.984 37.793C183.984 30.8268 181.51 25.4557 176.562 21.6797C171.615 17.9036 165.853 16.0156 159.277 16.0156C147.559 16.0156 139.453 19.9219 134.961 27.7344C132.487 32.0312 131.087 38.151 130.762 46.0938H113.379C113.379 35.6771 115.462 26.8229 119.629 19.5312C126.79 6.51042 139.388 0 157.422 0C171.68 0 182.715 3.1901 190.527 9.57031C198.34 15.8854 202.246 25.0651 202.246 37.1094C202.246 45.7031 199.935 52.6693 195.312 58.0078C192.448 61.3281 188.737 63.9323 184.18 65.8203C191.536 67.8385 197.266 71.7448 201.367 77.5391C205.534 83.2682 207.617 90.2995 207.617 98.6328C207.617 111.979 203.223 122.852 194.434 131.25C185.645 139.648 173.177 143.848 157.031 143.848Z" fill="url(#paint1_linear_41260_4783)"/>
</g>
<defs>
<linearGradient id="paint0_linear_41260_4783" x1="-5.74814e-06" y1="16.1829" x2="126.671" y2="289.905" gradientUnits="userSpaceOnUse">
<stop stop-color="#EEDDBF"/>
<stop offset="0.745659" stop-color="#C78A11"/>
</linearGradient>
<linearGradient id="paint1_linear_41260_4783" x1="-5.74814e-06" y1="16.1829" x2="126.671" y2="289.905" gradientUnits="userSpaceOnUse">
<stop stop-color="#EEDDBF"/>
<stop offset="0.745659" stop-color="#C78A11"/>
</linearGradient>
</defs>
</svg>
