<svg width="208" height="145" viewBox="0 0 208 145" fill="none" xmlns="http://www.w3.org/2000/svg">
<rect width="208" height="145" fill="#1E1E1E"/>
<g opacity="0.8">
<g opacity="0.05">
<path d="M47.8516 0.488281C65.9505 0.488281 79.0365 7.94271 87.1094 22.8516C93.3594 34.375 96.4844 50.1628 96.4844 70.2148C96.4844 89.2253 93.6523 104.948 87.9883 117.383C79.7852 135.221 66.3737 144.141 47.7539 144.141C30.957 144.141 18.457 136.849 10.2539 122.266C3.41797 110.091 0 93.75 0 73.2422C0 57.3568 2.05078 43.7174 6.15234 32.3242C13.8346 11.1003 27.7344 0.488281 47.8516 0.488281ZM47.6562 128.125C56.7708 128.125 64.0299 124.089 69.4336 116.016C74.8372 107.943 77.5391 92.9036 77.5391 70.8984C77.5391 55.013 75.5859 41.9596 71.6797 31.7383C67.7734 21.4518 60.1888 16.3086 48.9258 16.3086C38.5742 16.3086 30.9896 21.1914 26.1719 30.957C21.4193 40.6576 19.043 54.9805 19.043 73.9258C19.043 88.1836 20.5729 99.6419 23.6328 108.301C28.3203 121.517 36.3281 128.125 47.6562 128.125Z" fill="url(#paint0_linear_18293_1145)"/>
<path d="M111.328 140.332C111.979 128.288 114.453 117.806 118.75 108.887C123.112 99.9674 131.576 91.862 144.141 84.5703L162.891 73.7305C171.289 68.8477 177.181 64.681 180.566 61.2305C185.905 55.8268 188.574 49.6419 188.574 42.6758C188.574 34.5378 186.133 28.0924 181.25 23.3398C176.367 18.5221 169.857 16.1133 161.719 16.1133C149.674 16.1133 141.341 20.6706 136.719 29.7852C134.245 34.668 132.878 41.4388 132.617 50.0977H114.746C114.941 37.9232 117.188 27.9948 121.484 20.3125C129.102 6.77083 142.546 0 161.816 0C177.832 0 189.518 4.32943 196.875 12.9883C204.297 21.6471 208.008 31.2826 208.008 41.8945C208.008 53.0924 204.069 62.6628 196.191 70.6055C191.634 75.2279 183.464 80.8268 171.68 87.4023L158.301 94.8242C151.921 98.3398 146.908 101.693 143.262 104.883C136.751 110.547 132.65 116.829 130.957 123.73H207.324V140.332H111.328Z" fill="url(#paint1_linear_18293_1145)"/>
</g>
</g>
<defs>
<linearGradient id="paint0_linear_18293_1145" x1="-5.75896e-06" y1="16.2159" x2="126.942" y2="290.481" gradientUnits="userSpaceOnUse">
<stop stop-color="#EEDDBF"/>
<stop offset="0.745659" stop-color="#C78A11"/>
</linearGradient>
<linearGradient id="paint1_linear_18293_1145" x1="-5.75896e-06" y1="16.2159" x2="126.942" y2="290.481" gradientUnits="userSpaceOnUse">
<stop stop-color="#EEDDBF"/>
<stop offset="0.745659" stop-color="#C78A11"/>
</linearGradient>
</defs>
</svg>
