<svg width="434" height="370" viewBox="0 0 434 370" fill="none" xmlns="http://www.w3.org/2000/svg">
<path d="M298.914 25.3926H300.08V32.9746H304.439V34H298.914V25.3926ZM307.943 33.3203C308.643 33.3203 309.121 33.0566 309.379 32.5293C309.641 31.998 309.771 31.4082 309.771 30.7598C309.771 30.1738 309.678 29.6973 309.49 29.3301C309.193 28.752 308.682 28.4629 307.955 28.4629C307.311 28.4629 306.842 28.709 306.549 29.2012C306.256 29.6934 306.109 30.2871 306.109 30.9824C306.109 31.6504 306.256 32.207 306.549 32.6523C306.842 33.0977 307.307 33.3203 307.943 33.3203ZM307.984 27.543C308.793 27.543 309.477 27.8125 310.035 28.3516C310.594 28.8906 310.873 29.6836 310.873 30.7305C310.873 31.7422 310.627 32.5781 310.135 33.2383C309.643 33.8984 308.879 34.2285 307.844 34.2285C306.98 34.2285 306.295 33.9375 305.787 33.3555C305.279 32.7695 305.025 31.9844 305.025 31C305.025 29.9453 305.293 29.1055 305.828 28.4805C306.363 27.8555 307.082 27.543 307.984 27.543ZM312.162 27.7246H313.164V28.8086C313.246 28.5977 313.447 28.3418 313.768 28.041C314.088 27.7363 314.457 27.584 314.875 27.584C314.895 27.584 314.928 27.5859 314.975 27.5898C315.021 27.5938 315.102 27.6016 315.215 27.6133V28.7266C315.152 28.7148 315.094 28.707 315.039 28.7031C314.988 28.6992 314.932 28.6973 314.869 28.6973C314.338 28.6973 313.93 28.8691 313.645 29.2129C313.359 29.5527 313.217 29.9453 313.217 30.3906V34H312.162V27.7246ZM318.742 27.584C319.188 27.584 319.619 27.6895 320.037 27.9004C320.455 28.1074 320.773 28.377 320.992 28.709C321.203 29.0254 321.344 29.3945 321.414 29.8164C321.477 30.1055 321.508 30.5664 321.508 31.1992H316.908C316.928 31.8359 317.078 32.3477 317.359 32.7344C317.641 33.1172 318.076 33.3086 318.666 33.3086C319.217 33.3086 319.656 33.127 319.984 32.7637C320.172 32.5527 320.305 32.3086 320.383 32.0312H321.42C321.393 32.2617 321.301 32.5195 321.145 32.8047C320.992 33.0859 320.82 33.3164 320.629 33.4961C320.309 33.8086 319.912 34.0195 319.439 34.1289C319.186 34.1914 318.898 34.2227 318.578 34.2227C317.797 34.2227 317.135 33.9395 316.592 33.373C316.049 32.8027 315.777 32.0059 315.777 30.9824C315.777 29.9746 316.051 29.1562 316.598 28.5273C317.145 27.8984 317.859 27.584 318.742 27.584ZM320.424 30.3613C320.381 29.9043 320.281 29.5391 320.125 29.2656C319.836 28.7578 319.354 28.5039 318.678 28.5039C318.193 28.5039 317.787 28.6797 317.459 29.0312C317.131 29.3789 316.957 29.8223 316.938 30.3613H320.424ZM322.809 27.7246H323.852V28.6152C324.102 28.3066 324.328 28.082 324.531 27.9414C324.879 27.7031 325.273 27.584 325.715 27.584C326.215 27.584 326.617 27.707 326.922 27.9531C327.094 28.0938 327.25 28.3008 327.391 28.5742C327.625 28.2383 327.9 27.9902 328.217 27.8301C328.533 27.666 328.889 27.584 329.283 27.584C330.127 27.584 330.701 27.8887 331.006 28.498C331.17 28.8262 331.252 29.2676 331.252 29.8223V34H330.156V29.6406C330.156 29.2227 330.051 28.9355 329.84 28.7793C329.633 28.623 329.379 28.5449 329.078 28.5449C328.664 28.5449 328.307 28.6836 328.006 28.9609C327.709 29.2383 327.561 29.7012 327.561 30.3496V34H326.488V29.9043C326.488 29.4785 326.438 29.168 326.336 28.9727C326.176 28.6797 325.877 28.5332 325.439 28.5332C325.041 28.5332 324.678 28.6875 324.35 28.9961C324.025 29.3047 323.863 29.8633 323.863 30.6719V34H322.809V27.7246ZM336.549 25.3926H337.727V34H336.549V25.3926ZM342.133 33.291C342.625 33.291 343.033 33.0859 343.357 32.6758C343.686 32.2617 343.85 31.6445 343.85 30.8242C343.85 30.3242 343.777 29.8945 343.633 29.5352C343.359 28.8438 342.859 28.498 342.133 28.498C341.402 28.498 340.902 28.8633 340.633 29.5938C340.488 29.9844 340.416 30.4805 340.416 31.082C340.416 31.5664 340.488 31.9785 340.633 32.3184C340.906 32.9668 341.406 33.291 342.133 33.291ZM339.402 27.7539H340.428V28.5859C340.639 28.3008 340.869 28.0801 341.119 27.9238C341.475 27.6895 341.893 27.5723 342.373 27.5723C343.084 27.5723 343.688 27.8457 344.184 28.3926C344.68 28.9355 344.928 29.7129 344.928 30.7246C344.928 32.0918 344.57 33.0684 343.855 33.6543C343.402 34.0254 342.875 34.2109 342.273 34.2109C341.801 34.2109 341.404 34.1074 341.084 33.9004C340.896 33.7832 340.688 33.582 340.457 33.2969V36.502H339.402V27.7539ZM346.791 32.0312C346.822 32.3828 346.91 32.6523 347.055 32.8398C347.32 33.1797 347.781 33.3496 348.438 33.3496C348.828 33.3496 349.172 33.2656 349.469 33.0977C349.766 32.9258 349.914 32.6621 349.914 32.3066C349.914 32.0371 349.795 31.832 349.557 31.6914C349.404 31.6055 349.104 31.5059 348.654 31.3926L347.816 31.1816C347.281 31.0488 346.887 30.9004 346.633 30.7363C346.18 30.4512 345.953 30.0566 345.953 29.5527C345.953 28.959 346.166 28.4785 346.592 28.1113C347.021 27.7441 347.598 27.5605 348.32 27.5605C349.266 27.5605 349.947 27.8379 350.365 28.3926C350.627 28.7441 350.754 29.123 350.746 29.5293H349.75C349.73 29.291 349.646 29.0742 349.498 28.8789C349.256 28.6016 348.836 28.4629 348.238 28.4629C347.84 28.4629 347.537 28.5391 347.33 28.6914C347.127 28.8438 347.025 29.0449 347.025 29.2949C347.025 29.5684 347.16 29.7871 347.43 29.9512C347.586 30.0488 347.816 30.1348 348.121 30.209L348.818 30.3789C349.576 30.5625 350.084 30.7402 350.342 30.9121C350.752 31.1816 350.957 31.6055 350.957 32.1836C350.957 32.7422 350.744 33.2246 350.318 33.6309C349.896 34.0371 349.252 34.2402 348.385 34.2402C347.451 34.2402 346.789 34.0293 346.398 33.6074C346.012 33.1816 345.805 32.6562 345.777 32.0312H346.791ZM353.219 27.7246V31.8906C353.219 32.2109 353.27 32.4727 353.371 32.6758C353.559 33.0508 353.908 33.2383 354.42 33.2383C355.154 33.2383 355.654 32.9102 355.92 32.2539C356.064 31.9023 356.137 31.4199 356.137 30.8066V27.7246H357.191V34H356.195L356.207 33.0742C356.07 33.3125 355.9 33.5137 355.697 33.6777C355.295 34.0059 354.807 34.1699 354.232 34.1699C353.338 34.1699 352.729 33.8711 352.404 33.2734C352.229 32.9531 352.141 32.5254 352.141 31.9902V27.7246H353.219ZM358.844 27.7246H359.887V28.6152C360.137 28.3066 360.363 28.082 360.566 27.9414C360.914 27.7031 361.309 27.584 361.75 27.584C362.25 27.584 362.652 27.707 362.957 27.9531C363.129 28.0938 363.285 28.3008 363.426 28.5742C363.66 28.2383 363.936 27.9902 364.252 27.8301C364.568 27.666 364.924 27.584 365.318 27.584C366.162 27.584 366.736 27.8887 367.041 28.498C367.205 28.8262 367.287 29.2676 367.287 29.8223V34H366.191V29.6406C366.191 29.2227 366.086 28.9355 365.875 28.7793C365.668 28.623 365.414 28.5449 365.113 28.5449C364.699 28.5449 364.342 28.6836 364.041 28.9609C363.744 29.2383 363.596 29.7012 363.596 30.3496V34H362.523V29.9043C362.523 29.4785 362.473 29.168 362.371 28.9727C362.211 28.6797 361.912 28.5332 361.475 28.5332C361.076 28.5332 360.713 28.6875 360.385 28.9961C360.061 29.3047 359.898 29.8633 359.898 30.6719V34H358.844V27.7246ZM376.082 30.4727L374.775 26.6699L373.387 30.4727H376.082ZM374.166 25.3926H375.484L378.607 34H377.33L376.457 31.4219H373.053L372.121 34H370.926L374.166 25.3926ZM379.527 27.7246H380.57V28.6152C380.82 28.3066 381.047 28.082 381.25 27.9414C381.598 27.7031 381.992 27.584 382.434 27.584C382.934 27.584 383.336 27.707 383.641 27.9531C383.812 28.0938 383.969 28.3008 384.109 28.5742C384.344 28.2383 384.619 27.9902 384.936 27.8301C385.252 27.666 385.607 27.584 386.002 27.584C386.846 27.584 387.42 27.8887 387.725 28.498C387.889 28.8262 387.971 29.2676 387.971 29.8223V34H386.875V29.6406C386.875 29.2227 386.77 28.9355 386.559 28.7793C386.352 28.623 386.098 28.5449 385.797 28.5449C385.383 28.5449 385.025 28.6836 384.725 28.9609C384.428 29.2383 384.279 29.7012 384.279 30.3496V34H383.207V29.9043C383.207 29.4785 383.156 29.168 383.055 28.9727C382.895 28.6797 382.596 28.5332 382.158 28.5332C381.76 28.5332 381.396 28.6875 381.068 28.9961C380.744 29.3047 380.582 29.8633 380.582 30.6719V34H379.527V27.7246ZM392.137 27.584C392.582 27.584 393.014 27.6895 393.432 27.9004C393.85 28.1074 394.168 28.377 394.387 28.709C394.598 29.0254 394.738 29.3945 394.809 29.8164C394.871 30.1055 394.902 30.5664 394.902 31.1992H390.303C390.322 31.8359 390.473 32.3477 390.754 32.7344C391.035 33.1172 391.471 33.3086 392.061 33.3086C392.611 33.3086 393.051 33.127 393.379 32.7637C393.566 32.5527 393.699 32.3086 393.777 32.0312H394.814C394.787 32.2617 394.695 32.5195 394.539 32.8047C394.387 33.0859 394.215 33.3164 394.023 33.4961C393.703 33.8086 393.307 34.0195 392.834 34.1289C392.58 34.1914 392.293 34.2227 391.973 34.2227C391.191 34.2227 390.529 33.9395 389.986 33.373C389.443 32.8027 389.172 32.0059 389.172 30.9824C389.172 29.9746 389.445 29.1562 389.992 28.5273C390.539 27.8984 391.254 27.584 392.137 27.584ZM393.818 30.3613C393.775 29.9043 393.676 29.5391 393.52 29.2656C393.23 28.7578 392.748 28.5039 392.072 28.5039C391.588 28.5039 391.182 28.6797 390.854 29.0312C390.525 29.3789 390.352 29.8223 390.332 30.3613H393.818ZM396.414 25.9727H397.48V27.7246H398.482V28.5859H397.48V32.6816C397.48 32.9004 397.555 33.0469 397.703 33.1211C397.785 33.1641 397.922 33.1855 398.113 33.1855C398.164 33.1855 398.219 33.1855 398.277 33.1855C398.336 33.1816 398.404 33.1758 398.482 33.168V34C398.361 34.0352 398.234 34.0605 398.102 34.0762C397.973 34.0918 397.832 34.0996 397.68 34.0996C397.188 34.0996 396.854 33.9746 396.678 33.7246C396.502 33.4707 396.414 33.1426 396.414 32.7402V28.5859H395.564V27.7246H396.414V25.9727ZM403.785 31.2227C403.812 31.7109 403.928 32.1074 404.131 32.4121C404.518 32.9824 405.199 33.2676 406.176 33.2676C406.613 33.2676 407.012 33.2051 407.371 33.0801C408.066 32.8379 408.414 32.4043 408.414 31.7793C408.414 31.3105 408.268 30.9766 407.975 30.7773C407.678 30.582 407.213 30.4121 406.58 30.2676L405.414 30.0039C404.652 29.832 404.113 29.6426 403.797 29.4355C403.25 29.0762 402.977 28.5391 402.977 27.8242C402.977 27.0508 403.244 26.416 403.779 25.9199C404.314 25.4238 405.072 25.1758 406.053 25.1758C406.955 25.1758 407.721 25.3945 408.35 25.832C408.982 26.2656 409.299 26.9609 409.299 27.918H408.203C408.145 27.457 408.02 27.1035 407.828 26.8574C407.473 26.4082 406.869 26.1836 406.018 26.1836C405.33 26.1836 404.836 26.3281 404.535 26.6172C404.234 26.9062 404.084 27.2422 404.084 27.625C404.084 28.0469 404.26 28.3555 404.611 28.5508C404.842 28.6758 405.363 28.832 406.176 29.0195L407.383 29.2949C407.965 29.4277 408.414 29.6094 408.73 29.8398C409.277 30.2422 409.551 30.8262 409.551 31.5918C409.551 32.5449 409.203 33.2266 408.508 33.6367C407.816 34.0469 407.012 34.252 406.094 34.252C405.023 34.252 404.186 33.9785 403.58 33.4316C402.975 32.8887 402.678 32.1523 402.689 31.2227H403.785ZM410.887 27.7539H411.959V34H410.887V27.7539ZM410.887 25.3926H411.959V26.5879H410.887V25.3926ZM413.77 25.9727H414.836V27.7246H415.838V28.5859H414.836V32.6816C414.836 32.9004 414.91 33.0469 415.059 33.1211C415.141 33.1641 415.277 33.1855 415.469 33.1855C415.52 33.1855 415.574 33.1855 415.633 33.1855C415.691 33.1816 415.76 33.1758 415.838 33.168V34C415.717 34.0352 415.59 34.0605 415.457 34.0762C415.328 34.0918 415.188 34.0996 415.035 34.0996C414.543 34.0996 414.209 33.9746 414.033 33.7246C413.857 33.4707 413.77 33.1426 413.77 32.7402V28.5859H412.92V27.7246H413.77V25.9727ZM299.594 44.3926L302.066 51.7227L304.51 44.3926H305.816L302.676 53H301.439L298.305 44.3926H299.594ZM308.734 46.584C309.18 46.584 309.611 46.6895 310.029 46.9004C310.447 47.1074 310.766 47.377 310.984 47.709C311.195 48.0254 311.336 48.3945 311.406 48.8164C311.469 49.1055 311.5 49.5664 311.5 50.1992H306.9C306.92 50.8359 307.07 51.3477 307.352 51.7344C307.633 52.1172 308.068 52.3086 308.658 52.3086C309.209 52.3086 309.648 52.127 309.977 51.7637C310.164 51.5527 310.297 51.3086 310.375 51.0312H311.412C311.385 51.2617 311.293 51.5195 311.137 51.8047C310.984 52.0859 310.812 52.3164 310.621 52.4961C310.301 52.8086 309.904 53.0195 309.432 53.1289C309.178 53.1914 308.891 53.2227 308.57 53.2227C307.789 53.2227 307.127 52.9395 306.584 52.373C306.041 51.8027 305.77 51.0059 305.77 49.9824C305.77 48.9746 306.043 48.1562 306.59 47.5273C307.137 46.8984 307.852 46.584 308.734 46.584ZM310.416 49.3613C310.373 48.9043 310.273 48.5391 310.117 48.2656C309.828 47.7578 309.346 47.5039 308.67 47.5039C308.186 47.5039 307.779 47.6797 307.451 48.0312C307.123 48.3789 306.949 48.8223 306.93 49.3613H310.416ZM312.83 44.3926H313.885V53H312.83V44.3926ZM315.988 46.7246L317.664 51.834L319.416 46.7246H320.57L318.203 53H317.078L314.764 46.7246H315.988ZM324.086 46.584C324.531 46.584 324.963 46.6895 325.381 46.9004C325.799 47.1074 326.117 47.377 326.336 47.709C326.547 48.0254 326.688 48.3945 326.758 48.8164C326.82 49.1055 326.852 49.5664 326.852 50.1992H322.252C322.271 50.8359 322.422 51.3477 322.703 51.7344C322.984 52.1172 323.42 52.3086 324.01 52.3086C324.561 52.3086 325 52.127 325.328 51.7637C325.516 51.5527 325.648 51.3086 325.727 51.0312H326.764C326.736 51.2617 326.645 51.5195 326.488 51.8047C326.336 52.0859 326.164 52.3164 325.973 52.4961C325.652 52.8086 325.256 53.0195 324.783 53.1289C324.529 53.1914 324.242 53.2227 323.922 53.2227C323.141 53.2227 322.479 52.9395 321.936 52.373C321.393 51.8027 321.121 51.0059 321.121 49.9824C321.121 48.9746 321.395 48.1562 321.941 47.5273C322.488 46.8984 323.203 46.584 324.086 46.584ZM325.768 49.3613C325.725 48.9043 325.625 48.5391 325.469 48.2656C325.18 47.7578 324.697 47.5039 324.021 47.5039C323.537 47.5039 323.131 47.6797 322.803 48.0312C322.475 48.3789 322.301 48.8223 322.281 49.3613H325.768ZM328.363 44.9727H329.43V46.7246H330.432V47.5859H329.43V51.6816C329.43 51.9004 329.504 52.0469 329.652 52.1211C329.734 52.1641 329.871 52.1855 330.062 52.1855C330.113 52.1855 330.168 52.1855 330.227 52.1855C330.285 52.1816 330.354 52.1758 330.432 52.168V53C330.311 53.0352 330.184 53.0605 330.051 53.0762C329.922 53.0918 329.781 53.0996 329.629 53.0996C329.137 53.0996 328.803 52.9746 328.627 52.7246C328.451 52.4707 328.363 52.1426 328.363 51.7402V47.5859H327.514V46.7246H328.363V44.9727ZM335.002 44.3926H336.18V47.9492H340.656V44.3926H341.834V53H340.656V48.9746H336.18V53H335.002V44.3926ZM344.172 49.9355C344.172 50.6074 344.314 51.1699 344.6 51.623C344.885 52.0762 345.342 52.3027 345.971 52.3027C346.459 52.3027 346.859 52.0938 347.172 51.6758C347.488 51.2539 347.646 50.6504 347.646 49.8652C347.646 49.0723 347.484 48.4863 347.16 48.1074C346.836 47.7246 346.436 47.5332 345.959 47.5332C345.428 47.5332 344.996 47.7363 344.664 48.1426C344.336 48.5488 344.172 49.1465 344.172 49.9355ZM345.76 46.6133C346.24 46.6133 346.643 46.7148 346.967 46.918C347.154 47.0352 347.367 47.2402 347.605 47.5332V44.3633H348.619V53H347.67V52.127C347.424 52.5137 347.133 52.793 346.797 52.9648C346.461 53.1367 346.076 53.2227 345.643 53.2227C344.943 53.2227 344.338 52.9297 343.826 52.3438C343.314 51.7539 343.059 50.9707 343.059 49.9941C343.059 49.0801 343.291 48.2891 343.756 47.6211C344.225 46.9492 344.893 46.6133 345.76 46.6133ZM350.447 45.7695C350.463 45.332 350.539 45.0117 350.676 44.8086C350.922 44.4492 351.396 44.2695 352.1 44.2695C352.166 44.2695 352.234 44.2715 352.305 44.2754C352.375 44.2793 352.455 44.2852 352.545 44.293V45.2539C352.436 45.2461 352.355 45.2422 352.305 45.2422C352.258 45.2383 352.213 45.2363 352.17 45.2363C351.85 45.2363 351.658 45.3203 351.596 45.4883C351.533 45.6523 351.502 46.0742 351.502 46.7539H352.545V47.5859H351.49V53H350.447V47.5859H349.574V46.7539H350.447V45.7695ZM354.15 51.0312C354.182 51.3828 354.27 51.6523 354.414 51.8398C354.68 52.1797 355.141 52.3496 355.797 52.3496C356.188 52.3496 356.531 52.2656 356.828 52.0977C357.125 51.9258 357.273 51.6621 357.273 51.3066C357.273 51.0371 357.154 50.832 356.916 50.6914C356.764 50.6055 356.463 50.5059 356.014 50.3926L355.176 50.1816C354.641 50.0488 354.246 49.9004 353.992 49.7363C353.539 49.4512 353.312 49.0566 353.312 48.5527C353.312 47.959 353.525 47.4785 353.951 47.1113C354.381 46.7441 354.957 46.5605 355.68 46.5605C356.625 46.5605 357.307 46.8379 357.725 47.3926C357.986 47.7441 358.113 48.123 358.105 48.5293H357.109C357.09 48.291 357.006 48.0742 356.857 47.8789C356.615 47.6016 356.195 47.4629 355.598 47.4629C355.199 47.4629 354.896 47.5391 354.689 47.6914C354.486 47.8438 354.385 48.0449 354.385 48.2949C354.385 48.5684 354.52 48.7871 354.789 48.9512C354.945 49.0488 355.176 49.1348 355.48 49.209L356.178 49.3789C356.936 49.5625 357.443 49.7402 357.701 49.9121C358.111 50.1816 358.316 50.6055 358.316 51.1836C358.316 51.7422 358.104 52.2246 357.678 52.6309C357.256 53.0371 356.611 53.2402 355.744 53.2402C354.811 53.2402 354.148 53.0293 353.758 52.6074C353.371 52.1816 353.164 51.6562 353.137 51.0312H354.15ZM360.039 46.7246L361.715 51.834L363.467 46.7246H364.621L362.254 53H361.129L358.814 46.7246H360.039ZM366.578 46.7246V50.8906C366.578 51.2109 366.629 51.4727 366.73 51.6758C366.918 52.0508 367.268 52.2383 367.779 52.2383C368.514 52.2383 369.014 51.9102 369.279 51.2539C369.424 50.9023 369.496 50.4199 369.496 49.8066V46.7246H370.551V53H369.555L369.566 52.0742C369.43 52.3125 369.26 52.5137 369.057 52.6777C368.654 53.0059 368.166 53.1699 367.592 53.1699C366.697 53.1699 366.088 52.8711 365.764 52.2734C365.588 51.9531 365.5 51.5254 365.5 50.9902V46.7246H366.578ZM373.258 45.6113H372.203V44.3926H373.258V45.6113ZM371.207 54.5879C371.68 54.5723 371.963 54.5293 372.057 54.459C372.154 54.3926 372.203 54.1797 372.203 53.8203V46.7539H373.258V53.9316C373.258 54.3887 373.184 54.7305 373.035 54.957C372.789 55.3398 372.322 55.5312 371.635 55.5312C371.584 55.5312 371.529 55.5293 371.471 55.5254C371.416 55.5215 371.328 55.5137 371.207 55.502V54.5879ZM375.127 51.7227H376.352V53H375.127V51.7227Z" fill="#1A1A1A"/>
<path d="M0.914062 337.393H2.08008V344.975H6.43945V346H0.914062V337.393ZM9.94336 345.32C10.6426 345.32 11.1211 345.057 11.3789 344.529C11.6406 343.998 11.7715 343.408 11.7715 342.76C11.7715 342.174 11.6777 341.697 11.4902 341.33C11.1934 340.752 10.6816 340.463 9.95508 340.463C9.31055 340.463 8.8418 340.709 8.54883 341.201C8.25586 341.693 8.10938 342.287 8.10938 342.982C8.10938 343.65 8.25586 344.207 8.54883 344.652C8.8418 345.098 9.30664 345.32 9.94336 345.32ZM9.98438 339.543C10.793 339.543 11.4766 339.812 12.0352 340.352C12.5938 340.891 12.873 341.684 12.873 342.73C12.873 343.742 12.627 344.578 12.1348 345.238C11.6426 345.898 10.8789 346.229 9.84375 346.229C8.98047 346.229 8.29492 345.938 7.78711 345.355C7.2793 344.77 7.02539 343.984 7.02539 343C7.02539 341.945 7.29297 341.105 7.82812 340.48C8.36328 339.855 9.08203 339.543 9.98438 339.543ZM14.1621 339.725H15.1641V340.809C15.2461 340.598 15.4473 340.342 15.7676 340.041C16.0879 339.736 16.457 339.584 16.875 339.584C16.8945 339.584 16.9277 339.586 16.9746 339.59C17.0215 339.594 17.1016 339.602 17.2148 339.613V340.727C17.1523 340.715 17.0938 340.707 17.0391 340.703C16.9883 340.699 16.9316 340.697 16.8691 340.697C16.3379 340.697 15.9297 340.869 15.6445 341.213C15.3594 341.553 15.2168 341.945 15.2168 342.391V346H14.1621V339.725ZM20.7422 339.584C21.1875 339.584 21.6191 339.689 22.0371 339.9C22.4551 340.107 22.7734 340.377 22.9922 340.709C23.2031 341.025 23.3438 341.395 23.4141 341.816C23.4766 342.105 23.5078 342.566 23.5078 343.199H18.9082C18.9277 343.836 19.0781 344.348 19.3594 344.734C19.6406 345.117 20.0762 345.309 20.666 345.309C21.2168 345.309 21.6562 345.127 21.9844 344.764C22.1719 344.553 22.3047 344.309 22.3828 344.031H23.4199C23.3926 344.262 23.3008 344.52 23.1445 344.805C22.9922 345.086 22.8203 345.316 22.6289 345.496C22.3086 345.809 21.9121 346.02 21.4395 346.129C21.1855 346.191 20.8984 346.223 20.5781 346.223C19.7969 346.223 19.1348 345.939 18.5918 345.373C18.0488 344.803 17.7773 344.006 17.7773 342.982C17.7773 341.975 18.0508 341.156 18.5977 340.527C19.1445 339.898 19.8594 339.584 20.7422 339.584ZM22.4238 342.361C22.3809 341.904 22.2812 341.539 22.125 341.266C21.8359 340.758 21.3535 340.504 20.6777 340.504C20.1934 340.504 19.7871 340.68 19.459 341.031C19.1309 341.379 18.957 341.822 18.9375 342.361H22.4238ZM24.8086 339.725H25.8516V340.615C26.1016 340.307 26.3281 340.082 26.5312 339.941C26.8789 339.703 27.2734 339.584 27.7148 339.584C28.2148 339.584 28.6172 339.707 28.9219 339.953C29.0938 340.094 29.25 340.301 29.3906 340.574C29.625 340.238 29.9004 339.99 30.2168 339.83C30.5332 339.666 30.8887 339.584 31.2832 339.584C32.127 339.584 32.7012 339.889 33.0059 340.498C33.1699 340.826 33.252 341.268 33.252 341.822V346H32.1562V341.641C32.1562 341.223 32.0508 340.936 31.8398 340.779C31.6328 340.623 31.3789 340.545 31.0781 340.545C30.6641 340.545 30.3066 340.684 30.0059 340.961C29.709 341.238 29.5605 341.701 29.5605 342.35V346H28.4883V341.904C28.4883 341.479 28.4375 341.168 28.3359 340.973C28.1758 340.68 27.877 340.533 27.4395 340.533C27.041 340.533 26.6777 340.688 26.3496 340.996C26.0254 341.305 25.8633 341.863 25.8633 342.672V346H24.8086V339.725ZM38.5488 337.393H39.7266V346H38.5488V337.393ZM44.1328 345.291C44.625 345.291 45.0332 345.086 45.3574 344.676C45.6855 344.262 45.8496 343.645 45.8496 342.824C45.8496 342.324 45.7773 341.895 45.6328 341.535C45.3594 340.844 44.8594 340.498 44.1328 340.498C43.4023 340.498 42.9023 340.863 42.6328 341.594C42.4883 341.984 42.416 342.48 42.416 343.082C42.416 343.566 42.4883 343.979 42.6328 344.318C42.9062 344.967 43.4062 345.291 44.1328 345.291ZM41.4023 339.754H42.4277V340.586C42.6387 340.301 42.8691 340.08 43.1191 339.924C43.4746 339.689 43.8926 339.572 44.373 339.572C45.084 339.572 45.6875 339.846 46.1836 340.393C46.6797 340.936 46.9277 341.713 46.9277 342.725C46.9277 344.092 46.5703 345.068 45.8555 345.654C45.4023 346.025 44.875 346.211 44.2734 346.211C43.8008 346.211 43.4043 346.107 43.084 345.9C42.8965 345.783 42.6875 345.582 42.457 345.297V348.502H41.4023V339.754ZM48.791 344.031C48.8223 344.383 48.9102 344.652 49.0547 344.84C49.3203 345.18 49.7812 345.35 50.4375 345.35C50.8281 345.35 51.1719 345.266 51.4688 345.098C51.7656 344.926 51.9141 344.662 51.9141 344.307C51.9141 344.037 51.7949 343.832 51.5566 343.691C51.4043 343.605 51.1035 343.506 50.6543 343.393L49.8164 343.182C49.2812 343.049 48.8867 342.9 48.6328 342.736C48.1797 342.451 47.9531 342.057 47.9531 341.553C47.9531 340.959 48.166 340.479 48.5918 340.111C49.0215 339.744 49.5977 339.561 50.3203 339.561C51.2656 339.561 51.9473 339.838 52.3652 340.393C52.627 340.744 52.7539 341.123 52.7461 341.529H51.75C51.7305 341.291 51.6465 341.074 51.498 340.879C51.2559 340.602 50.8359 340.463 50.2383 340.463C49.8398 340.463 49.5371 340.539 49.3301 340.691C49.127 340.844 49.0254 341.045 49.0254 341.295C49.0254 341.568 49.1602 341.787 49.4297 341.951C49.5859 342.049 49.8164 342.135 50.1211 342.209L50.8184 342.379C51.5762 342.562 52.084 342.74 52.3418 342.912C52.752 343.182 52.957 343.605 52.957 344.184C52.957 344.742 52.7441 345.225 52.3184 345.631C51.8965 346.037 51.252 346.24 50.3848 346.24C49.4512 346.24 48.7891 346.029 48.3984 345.607C48.0117 345.182 47.8047 344.656 47.7773 344.031H48.791ZM55.2188 339.725V343.891C55.2188 344.211 55.2695 344.473 55.3711 344.676C55.5586 345.051 55.9082 345.238 56.4199 345.238C57.1543 345.238 57.6543 344.91 57.9199 344.254C58.0645 343.902 58.1367 343.42 58.1367 342.807V339.725H59.1914V346H58.1953L58.207 345.074C58.0703 345.312 57.9004 345.514 57.6973 345.678C57.2949 346.006 56.8066 346.17 56.2324 346.17C55.3379 346.17 54.7285 345.871 54.4043 345.273C54.2285 344.953 54.1406 344.525 54.1406 343.99V339.725H55.2188ZM60.8438 339.725H61.8867V340.615C62.1367 340.307 62.3633 340.082 62.5664 339.941C62.9141 339.703 63.3086 339.584 63.75 339.584C64.25 339.584 64.6523 339.707 64.957 339.953C65.1289 340.094 65.2852 340.301 65.4258 340.574C65.6602 340.238 65.9355 339.99 66.252 339.83C66.5684 339.666 66.9238 339.584 67.3184 339.584C68.1621 339.584 68.7363 339.889 69.041 340.498C69.2051 340.826 69.2871 341.268 69.2871 341.822V346H68.1914V341.641C68.1914 341.223 68.0859 340.936 67.875 340.779C67.668 340.623 67.4141 340.545 67.1133 340.545C66.6992 340.545 66.3418 340.684 66.041 340.961C65.7441 341.238 65.5957 341.701 65.5957 342.35V346H64.5234V341.904C64.5234 341.479 64.4727 341.168 64.3711 340.973C64.2109 340.68 63.9121 340.533 63.4746 340.533C63.0762 340.533 62.7129 340.688 62.3848 340.996C62.0605 341.305 61.8984 341.863 61.8984 342.672V346H60.8438V339.725ZM78.082 342.473L76.7754 338.67L75.3867 342.473H78.082ZM76.166 337.393H77.4844L80.6074 346H79.3301L78.457 343.422H75.0527L74.1211 346H72.9258L76.166 337.393ZM81.5273 339.725H82.5703V340.615C82.8203 340.307 83.0469 340.082 83.25 339.941C83.5977 339.703 83.9922 339.584 84.4336 339.584C84.9336 339.584 85.3359 339.707 85.6406 339.953C85.8125 340.094 85.9688 340.301 86.1094 340.574C86.3438 340.238 86.6191 339.99 86.9355 339.83C87.252 339.666 87.6074 339.584 88.002 339.584C88.8457 339.584 89.4199 339.889 89.7246 340.498C89.8887 340.826 89.9707 341.268 89.9707 341.822V346H88.875V341.641C88.875 341.223 88.7695 340.936 88.5586 340.779C88.3516 340.623 88.0977 340.545 87.7969 340.545C87.3828 340.545 87.0254 340.684 86.7246 340.961C86.4277 341.238 86.2793 341.701 86.2793 342.35V346H85.207V341.904C85.207 341.479 85.1562 341.168 85.0547 340.973C84.8945 340.68 84.5957 340.533 84.1582 340.533C83.7598 340.533 83.3965 340.688 83.0684 340.996C82.7441 341.305 82.582 341.863 82.582 342.672V346H81.5273V339.725ZM94.1367 339.584C94.582 339.584 95.0137 339.689 95.4316 339.9C95.8496 340.107 96.168 340.377 96.3867 340.709C96.5977 341.025 96.7383 341.395 96.8086 341.816C96.8711 342.105 96.9023 342.566 96.9023 343.199H92.3027C92.3223 343.836 92.4727 344.348 92.7539 344.734C93.0352 345.117 93.4707 345.309 94.0605 345.309C94.6113 345.309 95.0508 345.127 95.3789 344.764C95.5664 344.553 95.6992 344.309 95.7773 344.031H96.8145C96.7871 344.262 96.6953 344.52 96.5391 344.805C96.3867 345.086 96.2148 345.316 96.0234 345.496C95.7031 345.809 95.3066 346.02 94.834 346.129C94.5801 346.191 94.293 346.223 93.9727 346.223C93.1914 346.223 92.5293 345.939 91.9863 345.373C91.4434 344.803 91.1719 344.006 91.1719 342.982C91.1719 341.975 91.4453 341.156 91.9922 340.527C92.5391 339.898 93.2539 339.584 94.1367 339.584ZM95.8184 342.361C95.7754 341.904 95.6758 341.539 95.5195 341.266C95.2305 340.758 94.748 340.504 94.0723 340.504C93.5879 340.504 93.1816 340.68 92.8535 341.031C92.5254 341.379 92.3516 341.822 92.332 342.361H95.8184ZM98.4141 337.973H99.4805V339.725H100.482V340.586H99.4805V344.682C99.4805 344.9 99.5547 345.047 99.7031 345.121C99.7852 345.164 99.9219 345.186 100.113 345.186C100.164 345.186 100.219 345.186 100.277 345.186C100.336 345.182 100.404 345.176 100.482 345.168V346C100.361 346.035 100.234 346.061 100.102 346.076C99.9727 346.092 99.832 346.1 99.6797 346.1C99.1875 346.1 98.8535 345.975 98.6777 345.725C98.502 345.471 98.4141 345.143 98.4141 344.74V340.586H97.5645V339.725H98.4141V337.973ZM105.785 343.223C105.812 343.711 105.928 344.107 106.131 344.412C106.518 344.982 107.199 345.268 108.176 345.268C108.613 345.268 109.012 345.205 109.371 345.08C110.066 344.838 110.414 344.404 110.414 343.779C110.414 343.311 110.268 342.977 109.975 342.777C109.678 342.582 109.213 342.412 108.58 342.268L107.414 342.004C106.652 341.832 106.113 341.643 105.797 341.436C105.25 341.076 104.977 340.539 104.977 339.824C104.977 339.051 105.244 338.416 105.779 337.92C106.314 337.424 107.072 337.176 108.053 337.176C108.955 337.176 109.721 337.395 110.35 337.832C110.982 338.266 111.299 338.961 111.299 339.918H110.203C110.145 339.457 110.02 339.104 109.828 338.857C109.473 338.408 108.869 338.184 108.018 338.184C107.33 338.184 106.836 338.328 106.535 338.617C106.234 338.906 106.084 339.242 106.084 339.625C106.084 340.047 106.26 340.355 106.611 340.551C106.842 340.676 107.363 340.832 108.176 341.02L109.383 341.295C109.965 341.428 110.414 341.609 110.73 341.84C111.277 342.242 111.551 342.826 111.551 343.592C111.551 344.545 111.203 345.227 110.508 345.637C109.816 346.047 109.012 346.252 108.094 346.252C107.023 346.252 106.186 345.979 105.58 345.432C104.975 344.889 104.678 344.152 104.689 343.223H105.785ZM112.887 339.754H113.959V346H112.887V339.754ZM112.887 337.393H113.959V338.588H112.887V337.393ZM115.77 337.973H116.836V339.725H117.838V340.586H116.836V344.682C116.836 344.9 116.91 345.047 117.059 345.121C117.141 345.164 117.277 345.186 117.469 345.186C117.52 345.186 117.574 345.186 117.633 345.186C117.691 345.182 117.76 345.176 117.838 345.168V346C117.717 346.035 117.59 346.061 117.457 346.076C117.328 346.092 117.188 346.1 117.035 346.1C116.543 346.1 116.209 345.975 116.033 345.725C115.857 345.471 115.77 345.143 115.77 344.74V340.586H114.92V339.725H115.77V337.973ZM1.59375 356.393L4.06641 363.723L6.50977 356.393H7.81641L4.67578 365H3.43945L0.304688 356.393H1.59375ZM10.7344 358.584C11.1797 358.584 11.6113 358.689 12.0293 358.9C12.4473 359.107 12.7656 359.377 12.9844 359.709C13.1953 360.025 13.3359 360.395 13.4062 360.816C13.4688 361.105 13.5 361.566 13.5 362.199H8.90039C8.91992 362.836 9.07031 363.348 9.35156 363.734C9.63281 364.117 10.0684 364.309 10.6582 364.309C11.209 364.309 11.6484 364.127 11.9766 363.764C12.1641 363.553 12.2969 363.309 12.375 363.031H13.4121C13.3848 363.262 13.293 363.52 13.1367 363.805C12.9844 364.086 12.8125 364.316 12.6211 364.496C12.3008 364.809 11.9043 365.02 11.4316 365.129C11.1777 365.191 10.8906 365.223 10.5703 365.223C9.78906 365.223 9.12695 364.939 8.58398 364.373C8.04102 363.803 7.76953 363.006 7.76953 361.982C7.76953 360.975 8.04297 360.156 8.58984 359.527C9.13672 358.898 9.85156 358.584 10.7344 358.584ZM12.416 361.361C12.373 360.904 12.2734 360.539 12.1172 360.266C11.8281 359.758 11.3457 359.504 10.6699 359.504C10.1855 359.504 9.7793 359.68 9.45117 360.031C9.12305 360.379 8.94922 360.822 8.92969 361.361H12.416ZM14.8301 356.393H15.8848V365H14.8301V356.393ZM17.9883 358.725L19.6641 363.834L21.416 358.725H22.5703L20.2031 365H19.0781L16.7637 358.725H17.9883ZM26.0859 358.584C26.5312 358.584 26.9629 358.689 27.3809 358.9C27.7988 359.107 28.1172 359.377 28.3359 359.709C28.5469 360.025 28.6875 360.395 28.7578 360.816C28.8203 361.105 28.8516 361.566 28.8516 362.199H24.252C24.2715 362.836 24.4219 363.348 24.7031 363.734C24.9844 364.117 25.4199 364.309 26.0098 364.309C26.5605 364.309 27 364.127 27.3281 363.764C27.5156 363.553 27.6484 363.309 27.7266 363.031H28.7637C28.7363 363.262 28.6445 363.52 28.4883 363.805C28.3359 364.086 28.1641 364.316 27.9727 364.496C27.6523 364.809 27.2559 365.02 26.7832 365.129C26.5293 365.191 26.2422 365.223 25.9219 365.223C25.1406 365.223 24.4785 364.939 23.9355 364.373C23.3926 363.803 23.1211 363.006 23.1211 361.982C23.1211 360.975 23.3945 360.156 23.9414 359.527C24.4883 358.898 25.2031 358.584 26.0859 358.584ZM27.7676 361.361C27.7246 360.904 27.625 360.539 27.4688 360.266C27.1797 359.758 26.6973 359.504 26.0215 359.504C25.5371 359.504 25.1309 359.68 24.8027 360.031C24.4746 360.379 24.3008 360.822 24.2812 361.361H27.7676ZM30.3633 356.973H31.4297V358.725H32.4316V359.586H31.4297V363.682C31.4297 363.9 31.5039 364.047 31.6523 364.121C31.7344 364.164 31.8711 364.186 32.0625 364.186C32.1133 364.186 32.168 364.186 32.2266 364.186C32.2852 364.182 32.3535 364.176 32.4316 364.168V365C32.3105 365.035 32.1836 365.061 32.0508 365.076C31.9219 365.092 31.7812 365.1 31.6289 365.1C31.1367 365.1 30.8027 364.975 30.627 364.725C30.4512 364.471 30.3633 364.143 30.3633 363.74V359.586H29.5137V358.725H30.3633V356.973ZM37.002 356.393H38.1797V359.949H42.6562V356.393H43.834V365H42.6562V360.975H38.1797V365H37.002V356.393ZM46.1719 361.936C46.1719 362.607 46.3145 363.17 46.5996 363.623C46.8848 364.076 47.3418 364.303 47.9707 364.303C48.459 364.303 48.8594 364.094 49.1719 363.676C49.4883 363.254 49.6465 362.65 49.6465 361.865C49.6465 361.072 49.4844 360.486 49.1602 360.107C48.8359 359.725 48.4355 359.533 47.959 359.533C47.4277 359.533 46.9961 359.736 46.6641 360.143C46.3359 360.549 46.1719 361.146 46.1719 361.936ZM47.7598 358.613C48.2402 358.613 48.6426 358.715 48.9668 358.918C49.1543 359.035 49.3672 359.24 49.6055 359.533V356.363H50.6191V365H49.6699V364.127C49.4238 364.514 49.1328 364.793 48.7969 364.965C48.4609 365.137 48.0762 365.223 47.6426 365.223C46.9434 365.223 46.3379 364.93 45.8262 364.344C45.3145 363.754 45.0586 362.971 45.0586 361.994C45.0586 361.08 45.291 360.289 45.7559 359.621C46.2246 358.949 46.8926 358.613 47.7598 358.613ZM52.4473 357.77C52.4629 357.332 52.5391 357.012 52.6758 356.809C52.9219 356.449 53.3965 356.27 54.0996 356.27C54.166 356.27 54.2344 356.271 54.3047 356.275C54.375 356.279 54.4551 356.285 54.5449 356.293V357.254C54.4355 357.246 54.3555 357.242 54.3047 357.242C54.2578 357.238 54.2129 357.236 54.1699 357.236C53.8496 357.236 53.6582 357.32 53.5957 357.488C53.5332 357.652 53.502 358.074 53.502 358.754H54.5449V359.586H53.4902V365H52.4473V359.586H51.5742V358.754H52.4473V357.77ZM56.1504 363.031C56.1816 363.383 56.2695 363.652 56.4141 363.84C56.6797 364.18 57.1406 364.35 57.7969 364.35C58.1875 364.35 58.5312 364.266 58.8281 364.098C59.125 363.926 59.2734 363.662 59.2734 363.307C59.2734 363.037 59.1543 362.832 58.916 362.691C58.7637 362.605 58.4629 362.506 58.0137 362.393L57.1758 362.182C56.6406 362.049 56.2461 361.9 55.9922 361.736C55.5391 361.451 55.3125 361.057 55.3125 360.553C55.3125 359.959 55.5254 359.479 55.9512 359.111C56.3809 358.744 56.957 358.561 57.6797 358.561C58.625 358.561 59.3066 358.838 59.7246 359.393C59.9863 359.744 60.1133 360.123 60.1055 360.529H59.1094C59.0898 360.291 59.0059 360.074 58.8574 359.879C58.6152 359.602 58.1953 359.463 57.5977 359.463C57.1992 359.463 56.8965 359.539 56.6895 359.691C56.4863 359.844 56.3848 360.045 56.3848 360.295C56.3848 360.568 56.5195 360.787 56.7891 360.951C56.9453 361.049 57.1758 361.135 57.4805 361.209L58.1777 361.379C58.9355 361.562 59.4434 361.74 59.7012 361.912C60.1113 362.182 60.3164 362.605 60.3164 363.184C60.3164 363.742 60.1035 364.225 59.6777 364.631C59.2559 365.037 58.6113 365.24 57.7441 365.24C56.8105 365.24 56.1484 365.029 55.7578 364.607C55.3711 364.182 55.1641 363.656 55.1367 363.031H56.1504ZM62.0391 358.725L63.7148 363.834L65.4668 358.725H66.6211L64.2539 365H63.1289L60.8145 358.725H62.0391ZM68.5781 358.725V362.891C68.5781 363.211 68.6289 363.473 68.7305 363.676C68.918 364.051 69.2676 364.238 69.7793 364.238C70.5137 364.238 71.0137 363.91 71.2793 363.254C71.4238 362.902 71.4961 362.42 71.4961 361.807V358.725H72.5508V365H71.5547L71.5664 364.074C71.4297 364.312 71.2598 364.514 71.0566 364.678C70.6543 365.006 70.166 365.17 69.5918 365.17C68.6973 365.17 68.0879 364.871 67.7637 364.273C67.5879 363.953 67.5 363.525 67.5 362.99V358.725H68.5781ZM75.2578 357.611H74.2031V356.393H75.2578V357.611ZM73.207 366.588C73.6797 366.572 73.9629 366.529 74.0566 366.459C74.1543 366.393 74.2031 366.18 74.2031 365.82V358.754H75.2578V365.932C75.2578 366.389 75.1836 366.73 75.0352 366.957C74.7891 367.34 74.3223 367.531 73.6348 367.531C73.584 367.531 73.5293 367.529 73.4707 367.525C73.416 367.521 73.3281 367.514 73.207 367.502V366.588ZM77.127 363.723H78.3516V365H77.127V363.723Z" fill="#1A1A1A"/>
<circle cx="185.781" cy="163.664" r="132.367" fill="#C6B18B"/>
<g filter="url(#filter0_d_43101_2445)">
<path d="M186.222 13C186.222 11.8954 185.326 10.9986 184.222 11.0131C154.813 11.3995 126.13 20.2983 101.652 36.6541C76.6193 53.3805 57.1086 77.1543 45.5872 104.969C34.0659 132.784 31.0514 163.391 36.9249 192.919C42.7984 222.448 57.2962 249.571 78.5849 270.86C99.8735 292.148 126.997 306.646 156.525 312.52C186.053 318.393 216.66 315.379 244.475 303.857C272.29 292.336 296.064 272.825 312.79 247.792C329.146 223.314 338.045 194.631 338.431 165.223C338.446 164.118 337.549 163.222 336.445 163.222H188.222C187.118 163.222 186.222 162.327 186.222 161.222V13Z" fill="url(#paint0_linear_43101_2445)"/>
</g>
<path d="M143.688 207.916C143.688 208.709 143.815 209.365 144.07 209.885C144.544 210.842 145.406 211.32 146.654 211.32C147.42 211.32 148.085 211.061 148.65 210.541C149.225 210.012 149.512 209.256 149.512 208.271C149.512 206.968 148.983 206.098 147.926 205.66C147.324 205.414 146.376 205.291 145.082 205.291V202.502C146.349 202.484 147.233 202.361 147.734 202.133C148.6 201.75 149.033 200.975 149.033 199.809C149.033 199.052 148.81 198.437 148.363 197.963C147.926 197.489 147.306 197.252 146.504 197.252C145.583 197.252 144.904 197.544 144.467 198.127C144.038 198.71 143.833 199.49 143.852 200.465H140.215C140.251 199.48 140.42 198.546 140.721 197.662C141.04 196.887 141.541 196.172 142.225 195.516C142.735 195.051 143.341 194.695 144.043 194.449C144.745 194.203 145.606 194.08 146.627 194.08C148.523 194.08 150.049 194.572 151.207 195.557C152.374 196.532 152.957 197.844 152.957 199.494C152.957 200.661 152.611 201.645 151.918 202.447C151.48 202.949 151.025 203.29 150.551 203.473C150.906 203.473 151.417 203.778 152.082 204.389C153.076 205.309 153.572 206.567 153.572 208.162C153.572 209.839 152.989 211.316 151.822 212.592C150.665 213.859 148.947 214.492 146.668 214.492C143.861 214.492 141.91 213.576 140.816 211.744C140.242 210.769 139.923 209.493 139.859 207.916H143.688ZM159.492 208.244C159.492 209.219 159.743 209.976 160.244 210.514C160.755 211.051 161.456 211.32 162.35 211.32C163.243 211.32 163.94 211.051 164.441 210.514C164.952 209.976 165.207 209.219 165.207 208.244C165.207 207.232 164.947 206.467 164.428 205.947C163.917 205.419 163.225 205.154 162.35 205.154C161.475 205.154 160.777 205.419 160.258 205.947C159.747 206.467 159.492 207.232 159.492 208.244ZM155.445 208.504C155.445 207.392 155.696 206.385 156.197 205.482C156.708 204.58 157.451 203.901 158.426 203.445C157.469 202.807 156.844 202.119 156.553 201.381C156.27 200.633 156.129 199.936 156.129 199.289C156.129 197.849 156.671 196.623 157.756 195.611C158.84 194.59 160.372 194.08 162.35 194.08C164.327 194.08 165.859 194.59 166.943 195.611C168.028 196.623 168.57 197.849 168.57 199.289C168.57 199.936 168.424 200.633 168.133 201.381C167.85 202.119 167.23 202.762 166.273 203.309C167.249 203.855 167.982 204.58 168.475 205.482C168.967 206.385 169.213 207.392 169.213 208.504C169.213 210.172 168.593 211.594 167.354 212.77C166.123 213.936 164.4 214.52 162.186 214.52C159.971 214.52 158.294 213.936 157.154 212.77C156.015 211.594 155.445 210.172 155.445 208.504ZM159.848 199.727C159.848 200.447 160.066 201.035 160.504 201.49C160.951 201.946 161.566 202.174 162.35 202.174C163.143 202.174 163.753 201.946 164.182 201.49C164.619 201.035 164.838 200.447 164.838 199.727C164.838 198.943 164.619 198.332 164.182 197.895C163.753 197.448 163.143 197.225 162.35 197.225C161.566 197.225 160.951 197.448 160.504 197.895C160.066 198.332 159.848 198.943 159.848 199.727ZM175.078 207.725C175.078 208.791 175.365 209.661 175.939 210.336C176.514 211.01 177.243 211.348 178.127 211.348C178.993 211.348 179.672 211.024 180.164 210.377C180.665 209.721 180.916 208.873 180.916 207.834C180.916 206.676 180.633 205.792 180.068 205.182C179.503 204.562 178.811 204.252 177.99 204.252C177.325 204.252 176.737 204.452 176.227 204.854C175.461 205.446 175.078 206.403 175.078 207.725ZM180.561 199.166C180.561 198.847 180.438 198.496 180.191 198.113C179.772 197.493 179.139 197.184 178.291 197.184C177.024 197.184 176.122 197.895 175.584 199.316C175.292 200.1 175.092 201.258 174.982 202.789C175.465 202.215 176.026 201.796 176.664 201.531C177.302 201.267 178.031 201.135 178.852 201.135C180.611 201.135 182.051 201.732 183.172 202.926C184.302 204.12 184.867 205.646 184.867 207.506C184.867 209.356 184.316 210.988 183.213 212.4C182.11 213.813 180.396 214.52 178.072 214.52C175.575 214.52 173.734 213.476 172.549 211.389C171.628 209.757 171.168 207.652 171.168 205.072C171.168 203.559 171.232 202.329 171.359 201.381C171.587 199.695 172.029 198.291 172.686 197.17C173.251 196.213 173.989 195.443 174.9 194.859C175.821 194.276 176.919 193.984 178.195 193.984C180.036 193.984 181.504 194.458 182.598 195.406C183.691 196.345 184.307 197.598 184.443 199.166H180.561ZM100.297 228.227C101.375 228.227 102.307 228.435 103.094 228.852C104.234 229.451 104.932 230.5 105.188 232H103.648C103.461 231.161 103.073 230.552 102.484 230.172C101.896 229.786 101.154 229.594 100.258 229.594C99.1953 229.594 98.2995 229.992 97.5703 230.789C96.8464 231.586 96.4844 232.773 96.4844 234.352C96.4844 235.716 96.7839 236.828 97.3828 237.688C97.9818 238.542 98.9583 238.969 100.312 238.969C101.349 238.969 102.206 238.669 102.883 238.07C103.565 237.466 103.914 236.492 103.93 235.148H100.336V233.859H105.375V240H104.375L104 238.523C103.474 239.102 103.008 239.503 102.602 239.727C101.919 240.112 101.052 240.305 100 240.305C98.6406 240.305 97.4714 239.865 96.4922 238.984C95.4245 237.88 94.8906 236.365 94.8906 234.438C94.8906 232.516 95.4115 230.987 96.4531 229.852C97.4427 228.768 98.724 228.227 100.297 228.227ZM107.641 231.633H108.977V233.078C109.086 232.797 109.354 232.456 109.781 232.055C110.208 231.648 110.701 231.445 111.258 231.445C111.284 231.445 111.328 231.448 111.391 231.453C111.453 231.458 111.56 231.469 111.711 231.484V232.969C111.628 232.953 111.549 232.943 111.477 232.938C111.409 232.932 111.333 232.93 111.25 232.93C110.542 232.93 109.997 233.159 109.617 233.617C109.237 234.07 109.047 234.594 109.047 235.188V240H107.641V231.633ZM114.008 237.773C114.008 238.18 114.156 238.5 114.453 238.734C114.75 238.969 115.102 239.086 115.508 239.086C116.003 239.086 116.482 238.971 116.945 238.742C117.727 238.362 118.117 237.74 118.117 236.875V235.742C117.945 235.852 117.724 235.943 117.453 236.016C117.182 236.089 116.917 236.141 116.656 236.172L115.805 236.281C115.294 236.349 114.911 236.456 114.656 236.602C114.224 236.846 114.008 237.237 114.008 237.773ZM117.414 234.93C117.737 234.888 117.953 234.753 118.062 234.523C118.125 234.398 118.156 234.219 118.156 233.984C118.156 233.505 117.984 233.159 117.641 232.945C117.302 232.727 116.815 232.617 116.18 232.617C115.445 232.617 114.924 232.815 114.617 233.211C114.445 233.43 114.333 233.755 114.281 234.188H112.969C112.995 233.156 113.328 232.44 113.969 232.039C114.615 231.633 115.362 231.43 116.211 231.43C117.195 231.43 117.995 231.617 118.609 231.992C119.219 232.367 119.523 232.951 119.523 233.742V238.562C119.523 238.708 119.552 238.826 119.609 238.914C119.672 239.003 119.799 239.047 119.992 239.047C120.055 239.047 120.125 239.044 120.203 239.039C120.281 239.029 120.365 239.016 120.453 239V240.039C120.234 240.102 120.068 240.141 119.953 240.156C119.839 240.172 119.682 240.18 119.484 240.18C119 240.18 118.648 240.008 118.43 239.664C118.315 239.482 118.234 239.224 118.188 238.891C117.901 239.266 117.49 239.591 116.953 239.867C116.417 240.143 115.826 240.281 115.18 240.281C114.404 240.281 113.768 240.047 113.273 239.578C112.784 239.104 112.539 238.513 112.539 237.805C112.539 237.029 112.781 236.427 113.266 236C113.75 235.573 114.385 235.31 115.172 235.211L117.414 234.93ZM121.836 231.633H123.172V232.82C123.568 232.331 123.987 231.979 124.43 231.766C124.872 231.552 125.365 231.445 125.906 231.445C127.094 231.445 127.896 231.859 128.312 232.688C128.542 233.141 128.656 233.789 128.656 234.633V240H127.227V234.727C127.227 234.216 127.151 233.805 127 233.492C126.75 232.971 126.297 232.711 125.641 232.711C125.307 232.711 125.034 232.745 124.82 232.812C124.435 232.927 124.096 233.156 123.805 233.5C123.57 233.776 123.417 234.062 123.344 234.359C123.276 234.651 123.242 235.07 123.242 235.617V240H121.836V231.633ZM131.023 229.297H132.445V231.633H133.781V232.781H132.445V238.242C132.445 238.534 132.544 238.729 132.742 238.828C132.852 238.885 133.034 238.914 133.289 238.914C133.357 238.914 133.43 238.914 133.508 238.914C133.586 238.909 133.677 238.901 133.781 238.891V240C133.62 240.047 133.451 240.081 133.273 240.102C133.102 240.122 132.914 240.133 132.711 240.133C132.055 240.133 131.609 239.966 131.375 239.633C131.141 239.294 131.023 238.857 131.023 238.32V232.781H129.891V231.633H131.023V229.297ZM136.031 237.375C136.073 237.844 136.19 238.203 136.383 238.453C136.737 238.906 137.352 239.133 138.227 239.133C138.747 239.133 139.206 239.021 139.602 238.797C139.997 238.568 140.195 238.216 140.195 237.742C140.195 237.383 140.036 237.109 139.719 236.922C139.516 236.807 139.115 236.674 138.516 236.523L137.398 236.242C136.685 236.065 136.159 235.867 135.82 235.648C135.216 235.268 134.914 234.742 134.914 234.07C134.914 233.279 135.198 232.638 135.766 232.148C136.339 231.659 137.107 231.414 138.07 231.414C139.331 231.414 140.24 231.784 140.797 232.523C141.146 232.992 141.315 233.497 141.305 234.039H139.977C139.951 233.721 139.839 233.432 139.641 233.172C139.318 232.802 138.758 232.617 137.961 232.617C137.43 232.617 137.026 232.719 136.75 232.922C136.479 233.125 136.344 233.393 136.344 233.727C136.344 234.091 136.523 234.383 136.883 234.602C137.091 234.732 137.398 234.846 137.805 234.945L138.734 235.172C139.745 235.417 140.422 235.654 140.766 235.883C141.312 236.242 141.586 236.807 141.586 237.578C141.586 238.323 141.302 238.966 140.734 239.508C140.172 240.049 139.312 240.32 138.156 240.32C136.911 240.32 136.029 240.039 135.508 239.477C134.992 238.909 134.716 238.208 134.68 237.375H136.031ZM152.797 228.227C153.875 228.227 154.807 228.435 155.594 228.852C156.734 229.451 157.432 230.5 157.688 232H156.148C155.961 231.161 155.573 230.552 154.984 230.172C154.396 229.786 153.654 229.594 152.758 229.594C151.695 229.594 150.799 229.992 150.07 230.789C149.346 231.586 148.984 232.773 148.984 234.352C148.984 235.716 149.284 236.828 149.883 237.688C150.482 238.542 151.458 238.969 152.812 238.969C153.849 238.969 154.706 238.669 155.383 238.07C156.065 237.466 156.414 236.492 156.43 235.148H152.836V233.859H157.875V240H156.875L156.5 238.523C155.974 239.102 155.508 239.503 155.102 239.727C154.419 240.112 153.552 240.305 152.5 240.305C151.141 240.305 149.971 239.865 148.992 238.984C147.924 237.88 147.391 236.365 147.391 234.438C147.391 232.516 147.911 230.987 148.953 229.852C149.943 228.768 151.224 228.227 152.797 228.227ZM160.102 231.672H161.531V240H160.102V231.672ZM160.102 228.523H161.531V230.117H160.102V228.523ZM164.352 231.633L166.586 238.445L168.922 231.633H170.461L167.305 240H165.805L162.719 231.633H164.352ZM175.148 231.445C175.742 231.445 176.318 231.586 176.875 231.867C177.432 232.143 177.857 232.503 178.148 232.945C178.43 233.367 178.617 233.859 178.711 234.422C178.794 234.807 178.836 235.422 178.836 236.266H172.703C172.729 237.115 172.93 237.797 173.305 238.312C173.68 238.823 174.26 239.078 175.047 239.078C175.781 239.078 176.367 238.836 176.805 238.352C177.055 238.07 177.232 237.745 177.336 237.375H178.719C178.682 237.682 178.56 238.026 178.352 238.406C178.148 238.781 177.919 239.089 177.664 239.328C177.237 239.745 176.708 240.026 176.078 240.172C175.74 240.255 175.357 240.297 174.93 240.297C173.888 240.297 173.005 239.919 172.281 239.164C171.557 238.404 171.195 237.341 171.195 235.977C171.195 234.633 171.56 233.542 172.289 232.703C173.018 231.865 173.971 231.445 175.148 231.445ZM177.391 235.148C177.333 234.539 177.201 234.052 176.992 233.688C176.607 233.01 175.964 232.672 175.062 232.672C174.417 232.672 173.875 232.906 173.438 233.375C173 233.839 172.768 234.43 172.742 235.148H177.391ZM180.57 231.633H181.906V232.82C182.302 232.331 182.721 231.979 183.164 231.766C183.607 231.552 184.099 231.445 184.641 231.445C185.828 231.445 186.63 231.859 187.047 232.688C187.276 233.141 187.391 233.789 187.391 234.633V240H185.961V234.727C185.961 234.216 185.885 233.805 185.734 233.492C185.484 232.971 185.031 232.711 184.375 232.711C184.042 232.711 183.768 232.745 183.555 232.812C183.169 232.927 182.831 233.156 182.539 233.5C182.305 233.776 182.151 234.062 182.078 234.359C182.01 234.651 181.977 235.07 181.977 235.617V240H180.57V231.633ZM199.133 235.297L197.391 230.227L195.539 235.297H199.133ZM196.578 228.523H198.336L202.5 240H200.797L199.633 236.562H195.094L193.852 240H192.258L196.578 228.523ZM204.094 231.633L205.703 238.227L207.336 231.633H208.914L210.555 238.188L212.266 231.633H213.672L211.242 240H209.781L208.078 233.523L206.43 240H204.969L202.555 231.633H204.094ZM216.086 237.773C216.086 238.18 216.234 238.5 216.531 238.734C216.828 238.969 217.18 239.086 217.586 239.086C218.081 239.086 218.56 238.971 219.023 238.742C219.805 238.362 220.195 237.74 220.195 236.875V235.742C220.023 235.852 219.802 235.943 219.531 236.016C219.26 236.089 218.995 236.141 218.734 236.172L217.883 236.281C217.372 236.349 216.99 236.456 216.734 236.602C216.302 236.846 216.086 237.237 216.086 237.773ZM219.492 234.93C219.815 234.888 220.031 234.753 220.141 234.523C220.203 234.398 220.234 234.219 220.234 233.984C220.234 233.505 220.062 233.159 219.719 232.945C219.38 232.727 218.893 232.617 218.258 232.617C217.523 232.617 217.003 232.815 216.695 233.211C216.523 233.43 216.411 233.755 216.359 234.188H215.047C215.073 233.156 215.406 232.44 216.047 232.039C216.693 231.633 217.44 231.43 218.289 231.43C219.273 231.43 220.073 231.617 220.688 231.992C221.297 232.367 221.602 232.951 221.602 233.742V238.562C221.602 238.708 221.63 238.826 221.688 238.914C221.75 239.003 221.878 239.047 222.07 239.047C222.133 239.047 222.203 239.044 222.281 239.039C222.359 239.029 222.443 239.016 222.531 239V240.039C222.312 240.102 222.146 240.141 222.031 240.156C221.917 240.172 221.76 240.18 221.562 240.18C221.078 240.18 220.727 240.008 220.508 239.664C220.393 239.482 220.312 239.224 220.266 238.891C219.979 239.266 219.568 239.591 219.031 239.867C218.495 240.143 217.904 240.281 217.258 240.281C216.482 240.281 215.846 240.047 215.352 239.578C214.862 239.104 214.617 238.513 214.617 237.805C214.617 237.029 214.859 236.427 215.344 236C215.828 235.573 216.464 235.31 217.25 235.211L219.492 234.93ZM229.141 231.633H230.695C230.497 232.169 230.057 233.393 229.375 235.305C228.865 236.742 228.438 237.914 228.094 238.82C227.281 240.956 226.708 242.258 226.375 242.727C226.042 243.195 225.469 243.43 224.656 243.43C224.458 243.43 224.305 243.422 224.195 243.406C224.091 243.391 223.961 243.362 223.805 243.32V242.039C224.049 242.107 224.227 242.148 224.336 242.164C224.445 242.18 224.542 242.188 224.625 242.188C224.885 242.188 225.076 242.143 225.195 242.055C225.32 241.971 225.424 241.867 225.508 241.742C225.534 241.701 225.628 241.487 225.789 241.102C225.951 240.716 226.068 240.43 226.141 240.242L223.047 231.633H224.641L226.883 238.445L229.141 231.633Z" fill="#FCF9F6"/>
<path d="M217.328 96.3281V93.6758C218.559 93.6211 219.42 93.5391 219.912 93.4297C220.696 93.2565 221.334 92.9102 221.826 92.3906C222.163 92.0352 222.419 91.5612 222.592 90.9688C222.692 90.6133 222.742 90.349 222.742 90.1758H225.982V110H221.99V96.3281H217.328ZM231.383 96.3281V93.6758C232.613 93.6211 233.475 93.5391 233.967 93.4297C234.751 93.2565 235.389 92.9102 235.881 92.3906C236.218 92.0352 236.473 91.5612 236.646 90.9688C236.747 90.6133 236.797 90.349 236.797 90.1758H240.037V110H236.045V96.3281H231.383ZM259.67 105.734H257.428V110H253.613V105.734H245.766V102.33L253.053 90.2988H257.428V102.686H259.67V105.734ZM253.613 102.686V94.127L248.65 102.686H253.613ZM204.57 124.227C205.648 124.227 206.581 124.435 207.367 124.852C208.508 125.451 209.206 126.5 209.461 128H207.922C207.734 127.161 207.346 126.552 206.758 126.172C206.169 125.786 205.427 125.594 204.531 125.594C203.469 125.594 202.573 125.992 201.844 126.789C201.12 127.586 200.758 128.773 200.758 130.352C200.758 131.716 201.057 132.828 201.656 133.688C202.255 134.542 203.232 134.969 204.586 134.969C205.622 134.969 206.479 134.669 207.156 134.07C207.839 133.466 208.188 132.492 208.203 131.148H204.609V129.859H209.648V136H208.648L208.273 134.523C207.747 135.102 207.281 135.503 206.875 135.727C206.193 136.112 205.326 136.305 204.273 136.305C202.914 136.305 201.745 135.865 200.766 134.984C199.698 133.88 199.164 132.365 199.164 130.438C199.164 128.516 199.685 126.987 200.727 125.852C201.716 124.768 202.997 124.227 204.57 124.227ZM211.914 127.633H213.25V129.078C213.359 128.797 213.628 128.456 214.055 128.055C214.482 127.648 214.974 127.445 215.531 127.445C215.557 127.445 215.602 127.448 215.664 127.453C215.727 127.458 215.833 127.469 215.984 127.484V128.969C215.901 128.953 215.823 128.943 215.75 128.938C215.682 128.932 215.607 128.93 215.523 128.93C214.815 128.93 214.271 129.159 213.891 129.617C213.51 130.07 213.32 130.594 213.32 131.188V136H211.914V127.633ZM218.281 133.773C218.281 134.18 218.43 134.5 218.727 134.734C219.023 134.969 219.375 135.086 219.781 135.086C220.276 135.086 220.755 134.971 221.219 134.742C222 134.362 222.391 133.74 222.391 132.875V131.742C222.219 131.852 221.997 131.943 221.727 132.016C221.456 132.089 221.19 132.141 220.93 132.172L220.078 132.281C219.568 132.349 219.185 132.456 218.93 132.602C218.497 132.846 218.281 133.237 218.281 133.773ZM221.688 130.93C222.01 130.888 222.227 130.753 222.336 130.523C222.398 130.398 222.43 130.219 222.43 129.984C222.43 129.505 222.258 129.159 221.914 128.945C221.576 128.727 221.089 128.617 220.453 128.617C219.719 128.617 219.198 128.815 218.891 129.211C218.719 129.43 218.607 129.755 218.555 130.188H217.242C217.268 129.156 217.602 128.44 218.242 128.039C218.888 127.633 219.635 127.43 220.484 127.43C221.469 127.43 222.268 127.617 222.883 127.992C223.492 128.367 223.797 128.951 223.797 129.742V134.562C223.797 134.708 223.826 134.826 223.883 134.914C223.945 135.003 224.073 135.047 224.266 135.047C224.328 135.047 224.398 135.044 224.477 135.039C224.555 135.029 224.638 135.016 224.727 135V136.039C224.508 136.102 224.341 136.141 224.227 136.156C224.112 136.172 223.956 136.18 223.758 136.18C223.273 136.18 222.922 136.008 222.703 135.664C222.589 135.482 222.508 135.224 222.461 134.891C222.174 135.266 221.763 135.591 221.227 135.867C220.69 136.143 220.099 136.281 219.453 136.281C218.677 136.281 218.042 136.047 217.547 135.578C217.057 135.104 216.812 134.513 216.812 133.805C216.812 133.029 217.055 132.427 217.539 132C218.023 131.573 218.659 131.31 219.445 131.211L221.688 130.93ZM226.109 127.633H227.445V128.82C227.841 128.331 228.26 127.979 228.703 127.766C229.146 127.552 229.638 127.445 230.18 127.445C231.367 127.445 232.169 127.859 232.586 128.688C232.815 129.141 232.93 129.789 232.93 130.633V136H231.5V130.727C231.5 130.216 231.424 129.805 231.273 129.492C231.023 128.971 230.57 128.711 229.914 128.711C229.581 128.711 229.307 128.745 229.094 128.812C228.708 128.927 228.37 129.156 228.078 129.5C227.844 129.776 227.69 130.062 227.617 130.359C227.549 130.651 227.516 131.07 227.516 131.617V136H226.109V127.633ZM235.297 125.297H236.719V127.633H238.055V128.781H236.719V134.242C236.719 134.534 236.818 134.729 237.016 134.828C237.125 134.885 237.307 134.914 237.562 134.914C237.63 134.914 237.703 134.914 237.781 134.914C237.859 134.909 237.951 134.901 238.055 134.891V136C237.893 136.047 237.724 136.081 237.547 136.102C237.375 136.122 237.188 136.133 236.984 136.133C236.328 136.133 235.883 135.966 235.648 135.633C235.414 135.294 235.297 134.857 235.297 134.32V128.781H234.164V127.633H235.297V125.297ZM240.305 133.375C240.346 133.844 240.464 134.203 240.656 134.453C241.01 134.906 241.625 135.133 242.5 135.133C243.021 135.133 243.479 135.021 243.875 134.797C244.271 134.568 244.469 134.216 244.469 133.742C244.469 133.383 244.31 133.109 243.992 132.922C243.789 132.807 243.388 132.674 242.789 132.523L241.672 132.242C240.958 132.065 240.432 131.867 240.094 131.648C239.49 131.268 239.188 130.742 239.188 130.07C239.188 129.279 239.471 128.638 240.039 128.148C240.612 127.659 241.38 127.414 242.344 127.414C243.604 127.414 244.513 127.784 245.07 128.523C245.419 128.992 245.589 129.497 245.578 130.039H244.25C244.224 129.721 244.112 129.432 243.914 129.172C243.591 128.802 243.031 128.617 242.234 128.617C241.703 128.617 241.299 128.719 241.023 128.922C240.753 129.125 240.617 129.393 240.617 129.727C240.617 130.091 240.797 130.383 241.156 130.602C241.365 130.732 241.672 130.846 242.078 130.945L243.008 131.172C244.018 131.417 244.695 131.654 245.039 131.883C245.586 132.242 245.859 132.807 245.859 133.578C245.859 134.323 245.576 134.966 245.008 135.508C244.445 136.049 243.586 136.32 242.43 136.32C241.185 136.32 240.302 136.039 239.781 135.477C239.266 134.909 238.99 134.208 238.953 133.375H240.305ZM252.109 124.523H253.664V134.633H259.477V136H252.109V124.523ZM264.312 127.445C264.906 127.445 265.482 127.586 266.039 127.867C266.596 128.143 267.021 128.503 267.312 128.945C267.594 129.367 267.781 129.859 267.875 130.422C267.958 130.807 268 131.422 268 132.266H261.867C261.893 133.115 262.094 133.797 262.469 134.312C262.844 134.823 263.424 135.078 264.211 135.078C264.945 135.078 265.531 134.836 265.969 134.352C266.219 134.07 266.396 133.745 266.5 133.375H267.883C267.846 133.682 267.724 134.026 267.516 134.406C267.312 134.781 267.083 135.089 266.828 135.328C266.401 135.745 265.872 136.026 265.242 136.172C264.904 136.255 264.521 136.297 264.094 136.297C263.052 136.297 262.169 135.919 261.445 135.164C260.721 134.404 260.359 133.341 260.359 131.977C260.359 130.633 260.724 129.542 261.453 128.703C262.182 127.865 263.135 127.445 264.312 127.445ZM266.555 131.148C266.497 130.539 266.365 130.052 266.156 129.688C265.771 129.01 265.128 128.672 264.227 128.672C263.581 128.672 263.039 128.906 262.602 129.375C262.164 129.839 261.932 130.43 261.906 131.148H266.555ZM270.086 126.359C270.107 125.776 270.208 125.349 270.391 125.078C270.719 124.599 271.352 124.359 272.289 124.359C272.378 124.359 272.469 124.362 272.562 124.367C272.656 124.372 272.763 124.38 272.883 124.391V125.672C272.737 125.661 272.63 125.656 272.562 125.656C272.5 125.651 272.44 125.648 272.383 125.648C271.956 125.648 271.701 125.76 271.617 125.984C271.534 126.203 271.492 126.766 271.492 127.672H272.883V128.781H271.477V136H270.086V128.781H268.922V127.672H270.086V126.359ZM274.469 125.297H275.891V127.633H277.227V128.781H275.891V134.242C275.891 134.534 275.99 134.729 276.188 134.828C276.297 134.885 276.479 134.914 276.734 134.914C276.802 134.914 276.875 134.914 276.953 134.914C277.031 134.909 277.122 134.901 277.227 134.891V136C277.065 136.047 276.896 136.081 276.719 136.102C276.547 136.122 276.359 136.133 276.156 136.133C275.5 136.133 275.055 135.966 274.82 135.633C274.586 135.294 274.469 134.857 274.469 134.32V128.781H273.336V127.633H274.469V125.297Z" fill="#FCF9F6"/>
<path d="M147.416 327.5V328H147.671L147.82 327.794L147.416 327.5ZM118.333 327.5C118.333 328.973 119.527 330.167 121 330.167C122.473 330.167 123.667 328.973 123.667 327.5C123.667 326.027 122.473 324.833 121 324.833C119.527 324.833 118.333 326.027 118.333 327.5ZM185.095 274.706L147.011 327.206L147.82 327.794L185.905 275.294L185.095 274.706ZM147.416 327H121V328H147.416V327Z" fill="url(#paint1_linear_43101_2445)"/>
<path d="M294.663 62V61.5H294.421L294.271 61.6892L294.663 62ZM311.333 62C311.333 63.4728 312.527 64.6667 314 64.6667C315.473 64.6667 316.667 63.4728 316.667 62C316.667 60.5272 315.473 59.3333 314 59.3333C312.527 59.3333 311.333 60.5272 311.333 62ZM278.392 83.3108L295.055 62.3108L294.271 61.6892L277.608 82.6892L278.392 83.3108ZM294.663 62.5H314V61.5H294.663V62.5Z" fill="#D7C8AE"/>
<defs>
<filter id="filter0_d_43101_2445" x="19.7" y="0.713672" width="333.032" height="333.032" filterUnits="userSpaceOnUse" color-interpolation-filters="sRGB">
<feFlood flood-opacity="0" result="BackgroundImageFix"/>
<feColorMatrix in="SourceAlpha" type="matrix" values="0 0 0 0 0 0 0 0 0 0 0 0 0 0 0 0 0 0 127 0" result="hardAlpha"/>
<feOffset dy="4"/>
<feGaussianBlur stdDeviation="7.15"/>
<feComposite in2="hardAlpha" operator="out"/>
<feColorMatrix type="matrix" values="0 0 0 0 0 0 0 0 0 0 0 0 0 0 0 0 0 0 0.25 0"/>
<feBlend mode="normal" in2="BackgroundImageFix" result="effect1_dropShadow_43101_2445"/>
<feBlend mode="normal" in="SourceGraphic" in2="effect1_dropShadow_43101_2445" result="shape"/>
</filter>
<linearGradient id="paint0_linear_43101_2445" x1="34" y1="11" x2="259.694" y2="355.777" gradientUnits="userSpaceOnUse">
<stop stop-color="#F4EAD8"/>
<stop offset="1" stop-color="#E0B764"/>
</linearGradient>
<linearGradient id="paint1_linear_43101_2445" x1="121" y1="275" x2="156.247" y2="341.152" gradientUnits="userSpaceOnUse">
<stop stop-color="#F4EAD8"/>
<stop offset="1" stop-color="#E0B764"/>
</linearGradient>
</defs>
</svg>
